<svg xmlns="http://www.w3.org/2000/svg" width="30" viewBox="0 0 30 30" height="30" version="1.0"><defs><clipPath id="a"><path d="M 7 6.320312 L 23 6.320312 L 23 23 L 7 23 Z M 7 6.320312"/></clipPath><clipPath id="b"><path d="M 1.933594 6.320312 L 28.066406 6.320312 L 28.066406 23 L 1.933594 23 Z M 1.933594 6.320312"/></clipPath></defs><g clip-path="url(#a)"><path fill="#FFCC4D" d="M 22.984375 14.628906 C 22.984375 15.164062 22.933594 15.691406 22.832031 16.214844 C 22.726562 16.738281 22.578125 17.25 22.375 17.742188 C 22.175781 18.234375 21.929688 18.703125 21.636719 19.148438 C 21.347656 19.59375 21.015625 20.003906 20.644531 20.378906 C 20.273438 20.757812 19.871094 21.09375 19.433594 21.390625 C 19 21.6875 18.539062 21.9375 18.054688 22.144531 C 17.570312 22.347656 17.070312 22.503906 16.558594 22.605469 C 16.042969 22.710938 15.523438 22.761719 15 22.761719 C 14.476562 22.761719 13.957031 22.710938 13.441406 22.605469 C 12.929688 22.503906 12.429688 22.347656 11.945312 22.144531 C 11.460938 21.9375 11 21.6875 10.566406 21.390625 C 10.128906 21.09375 9.726562 20.757812 9.355469 20.378906 C 8.984375 20.003906 8.652344 19.59375 8.363281 19.148438 C 8.070312 18.703125 7.824219 18.234375 7.625 17.742188 C 7.421875 17.25 7.273438 16.738281 7.167969 16.214844 C 7.066406 15.691406 7.015625 15.164062 7.015625 14.628906 C 7.015625 14.097656 7.066406 13.566406 7.167969 13.042969 C 7.273438 12.519531 7.421875 12.011719 7.625 11.519531 C 7.824219 11.023438 8.070312 10.554688 8.363281 10.113281 C 8.652344 9.667969 8.984375 9.257812 9.355469 8.878906 C 9.726562 8.5 10.128906 8.164062 10.566406 7.867188 C 11 7.570312 11.460938 7.320312 11.945312 7.117188 C 12.429688 6.910156 12.929688 6.757812 13.441406 6.652344 C 13.957031 6.550781 14.476562 6.496094 15 6.496094 C 15.523438 6.496094 16.042969 6.550781 16.558594 6.652344 C 17.070312 6.757812 17.570312 6.910156 18.054688 7.117188 C 18.539062 7.320312 19 7.570312 19.433594 7.867188 C 19.871094 8.164062 20.273438 8.5 20.644531 8.878906 C 21.015625 9.257812 21.347656 9.667969 21.636719 10.113281 C 21.929688 10.554688 22.175781 11.023438 22.375 11.519531 C 22.578125 12.011719 22.726562 12.519531 22.832031 13.042969 C 22.933594 13.566406 22.984375 14.097656 22.984375 14.628906 Z M 22.984375 14.628906"/></g><path fill="#F4900C" d="M 9.199219 18.242188 C 8.464844 18.292969 7.9375 18.007812 7.554688 17.546875 C 7.714844 17.96875 7.917969 18.367188 8.140625 18.753906 C 8.71875 18.972656 9.328125 19.066406 10.039062 18.546875 C 9.691406 18.375 9.382812 18.230469 9.199219 18.242188 Z M 18.796875 7.488281 C 18.832031 7.738281 18.65625 7.867188 18.238281 7.761719 C 17.523438 7.585938 16.898438 8.355469 16.539062 8.996094 C 15.832031 10.253906 12.914062 11.675781 12.914062 10.582031 C 12.914062 10.066406 10.335938 11.222656 10.007812 10.703125 C 9.695312 10.214844 8.765625 10.402344 8.574219 9.816406 C 7.726562 10.988281 7.175781 12.402344 7.050781 13.9375 C 7.332031 14.484375 7.695312 14.914062 8.058594 15.101562 C 8.550781 15.351562 10.839844 16.261719 11.175781 15.679688 C 11.734375 14.710938 15.078125 15.394531 15 14.886719 C 14.847656 13.910156 16.8125 14.710938 17.515625 13.453125 C 17.878906 12.8125 18.660156 12.320312 19.375 12.496094 C 20.207031 12.703125 21.238281 11.246094 21.160156 9.457031 C 20.507812 8.652344 19.703125 7.988281 18.796875 7.488281 Z M 21.171875 19.789062 C 20.917969 19.914062 20.671875 20.011719 20.445312 20.035156 C 18.765625 20.222656 18.402344 21.5625 17.277344 21.332031 C 16.695312 21.210938 15.90625 22.253906 15 22.316406 C 14.542969 22.351562 13.886719 22.425781 13.21875 22.550781 C 13.792969 22.683594 14.386719 22.761719 15 22.761719 C 17.488281 22.761719 19.707031 21.605469 21.171875 19.789062 Z M 21.171875 19.789062"/><g clip-path="url(#b)"><path fill="#E85E00" d="M 18.902344 7.539062 C 19.613281 7.945312 20.253906 8.460938 20.808594 9.0625 C 22.667969 8.941406 23.800781 9.386719 23.707031 10.414062 C 23.65625 10.949219 23.269531 11.585938 22.636719 12.265625 C 21.0625 13.953125 17.929688 15.910156 14.375 17.285156 C 11.902344 18.238281 9.703125 18.730469 8.128906 18.753906 C 6.527344 18.78125 5.578125 18.328125 5.664062 17.382812 C 5.71875 16.765625 6.222656 16.011719 7.046875 15.210938 C 7.03125 15.019531 7.015625 14.824219 7.015625 14.628906 C 7.015625 13.984375 7.097656 13.359375 7.238281 12.757812 C 4.027344 15.027344 1.933594 17.523438 1.933594 19.472656 C 1.933594 22.125 5.789062 22.941406 11.097656 21.722656 C 12.332031 21.441406 13.640625 21.046875 15 20.542969 C 17.910156 19.464844 20.589844 18.035156 22.761719 16.5 C 25.972656 14.230469 28.066406 11.734375 28.066406 9.785156 C 28.066406 7.132812 24.210938 6.320312 18.902344 7.539062 Z M 18.902344 7.539062"/></g><path fill="#F4900C" d="M 6.308594 14.667969 C 5.753906 15.210938 5.285156 15.828125 4.902344 16.480469 C 4.539062 17.128906 4.226562 17.855469 4.273438 18.511719 C 4.300781 19.164062 4.78125 19.550781 5.4375 19.730469 C 6.089844 19.902344 6.8125 19.949219 7.550781 19.902344 C 9.015625 19.835938 10.488281 19.589844 11.914062 19.171875 C 13.347656 18.785156 14.742188 18.238281 16.105469 17.621094 C 18.828125 16.382812 21.382812 14.738281 23.667969 12.769531 C 23.945312 12.515625 24.246094 12.273438 24.507812 12.019531 C 24.757812 11.761719 24.992188 11.476562 25.1875 11.183594 C 25.578125 10.601562 25.804688 9.917969 25.4375 9.394531 C 25.070312 8.867188 24.320312 8.578125 23.605469 8.429688 C 22.875 8.285156 22.105469 8.253906 21.34375 8.34375 C 22.085938 8.144531 22.863281 8.042969 23.648438 8.105469 C 24.417969 8.175781 25.269531 8.332031 25.894531 9.03125 C 26.199219 9.378906 26.34375 9.902344 26.285156 10.359375 C 26.242188 10.824219 26.066406 11.234375 25.867188 11.605469 C 25.660156 11.972656 25.425781 12.308594 25.160156 12.628906 C 24.898438 12.9375 24.632812 13.21875 24.359375 13.511719 C 22.171875 15.789062 19.550781 17.628906 16.699219 18.957031 C 13.851562 20.265625 10.746094 21.171875 7.546875 21.050781 C 6.757812 21.023438 5.9375 20.949219 5.128906 20.636719 C 4.730469 20.476562 4.324219 20.242188 4.011719 19.863281 C 3.691406 19.488281 3.535156 18.972656 3.570312 18.515625 C 3.644531 17.589844 4.097656 16.878906 4.578125 16.25 C 5.074219 15.628906 5.660156 15.089844 6.308594 14.667969 Z M 6.308594 14.667969"/></svg>